<svg width="1417" height="1417" viewBox="0 0 1417 1417" fill="none" xmlns="http://www.w3.org/2000/svg">
<circle cx="804" cy="40" r="40" fill="white" fill-opacity="0.8"/>
<circle cx="1186" cy="40" r="40" fill="white" fill-opacity="0.8"/>
<circle cx="422" cy="40" r="40" fill="white" fill-opacity="0.5"/>
<circle cx="995" cy="40" r="40" fill="white" fill-opacity="0.8"/>
<circle cx="231" cy="40" r="40" fill="white" fill-opacity="0.5"/>
<circle cx="613" cy="40" r="40" fill="white" fill-opacity="0.8"/>
<circle cx="804" cy="613" r="40" fill="white" fill-opacity="0.8"/>
<circle cx="40" cy="613" r="40" fill="white" fill-opacity="0.5"/>
<circle cx="1186" cy="613" r="60" fill="white"/>
<circle cx="422" cy="613" r="60" fill="white"/>
<circle cx="995" cy="613" r="60" fill="white"/>
<circle cx="231" cy="613" r="60" fill="white"/>
<circle cx="1377" cy="613" r="40" fill="white" fill-opacity="0.8"/>
<circle cx="613" cy="613" r="40" fill="white" fill-opacity="0.6"/>
<circle cx="804" cy="422" r="40" fill="white" fill-opacity="0.6"/>
<circle cx="40" cy="422" r="40" fill="white" fill-opacity="0.5"/>
<circle cx="1186" cy="422" r="40" fill="white" fill-opacity="0.8"/>
<circle cx="422" cy="412" r="60" fill="white"/>
<circle cx="995" cy="422" r="60" fill="white"/>
<circle cx="231" cy="422" r="40" fill="white" fill-opacity="0.8"/>
<circle cx="1377" cy="422" r="40" fill="white" fill-opacity="0.8"/>
<circle cx="613" cy="422" r="40" fill="white" fill-opacity="0.6"/>
<circle cx="804" cy="995" r="60" fill="white"/>
<circle cx="40" cy="995" r="40" fill="white" fill-opacity="0.5"/>
<circle cx="1186" cy="995" r="60" fill="white"/>
<circle cx="422" cy="995" r="60" fill="white"/>
<circle cx="995" cy="995" r="60" fill="white"/>
<circle cx="231" cy="995" r="60" fill="white"/>
<circle cx="1377" cy="995" r="40" fill="white" fill-opacity="0.8"/>
<circle cx="613" cy="995" r="60" fill="white"/>
<circle cx="804" cy="1377" r="40" fill="white" fill-opacity="0.4"/>
<circle cx="1186" cy="1377" r="40" fill="white" fill-opacity="0.8"/>
<circle cx="422" cy="1377" r="40" fill="white" fill-opacity="0.4"/>
<circle cx="995" cy="1377" r="40" fill="white" fill-opacity="0.8"/>
<circle cx="231" cy="1377" r="40" fill="white" fill-opacity="0.3"/>
<circle cx="613" cy="1377" r="40" fill="white" fill-opacity="0.4"/>
<circle cx="804" cy="231" r="60" fill="white"/>
<circle cx="40" cy="231" r="40" fill="white" fill-opacity="0.5"/>
<circle cx="1186" cy="231" r="40" fill="white" fill-opacity="0.8"/>
<circle cx="422" cy="231" r="40" fill="white" fill-opacity="0.6"/>
<circle cx="995" cy="231" r="40" fill="white" fill-opacity="0.8"/>
<circle cx="231" cy="231" r="40" fill="white" fill-opacity="0.6"/>
<circle cx="1377" cy="231" r="40" fill="white" fill-opacity="0.8"/>
<circle cx="613" cy="231" r="60" fill="white"/>
<circle cx="804" cy="804" r="60" fill="white"/>
<circle cx="40" cy="804" r="40" fill="white" fill-opacity="0.5"/>
<circle cx="1186" cy="804" r="60" fill="white"/>
<circle cx="422" cy="804" r="60" fill="white"/>
<circle cx="995" cy="804" r="60" fill="white"/>
<circle cx="231" cy="804" r="60" fill="white"/>
<circle cx="1377" cy="804" r="40" fill="white" fill-opacity="0.8"/>
<circle cx="613" cy="804" r="60" fill="white"/>
<circle cx="804" cy="1186" r="40" fill="white" fill-opacity="0.8"/>
<circle cx="40" cy="1186" r="40" fill="white" fill-opacity="0.5"/>
<circle cx="1186" cy="1186" r="60" fill="white"/>
<circle cx="422" cy="1186" r="60" fill="white"/>
<circle cx="995" cy="1186" r="60" fill="white"/>
<circle cx="231" cy="1186" r="60" fill="white"/>
<circle cx="1377" cy="1186" r="40" fill="white" fill-opacity="0.8"/>
<circle cx="613" cy="1186" r="40" fill="white" fill-opacity="0.8"/>
</svg>
